<svg id="Calque_1" data-name="Calque 1" xmlns="http://www.w3.org/2000/svg" viewBox="0 0 837.74 837.34"><path d="M944,551.31c-.34,231.78-187.72,418.4-420.05,418.36-229.83,0-418.48-189.35-417.68-419.16.79-230.25,189.45-419,418-418.18C757,133.13,944.32,320.17,944,551.31Zm-171.86,262C869.56,724.88,917.87,574,864.63,427.07c-53.69-148.13-199.57-244.35-357.89-236.7-155.48,7.5-289.89,116-330.69,268.51C137.78,601.91,194.19,739.67,280.1,814c.61-2.66,1.26-5,1.67-7.37C293,742,329.59,700,393.89,685.48c29.56-6.69,60.11-10.41,90.4-12.14,56-3.21,112.13-2.59,167.29,10C703.27,695.12,743,722,761.32,774.08,765.73,786.61,768.44,799.73,772.12,813.26Z" transform="translate(-106.24 -132.33)"/><path d="M663,430.68c.53,73.37-61.81,136.37-135.16,136.61-77.28.24-138.33-60.13-138.95-137.43-.6-73.38,61.38-136.06,135.13-136.63C600.85,292.62,662.48,353.57,663,430.68Z" transform="translate(-106.24 -132.33)"/></svg>