<svg id="Layer_1" data-name="Layer 1" xmlns="http://www.w3.org/2000/svg" viewBox="0 0 380.34 380.34"><defs><style>.cls-1{fill:#666766;}.cls-2,.cls-6{fill:#fff;}.cls-3,.cls-4,.cls-5{fill:none;}.cls-3,.cls-4,.cls-5,.cls-6{stroke:#6c6c6c;stroke-miterlimit:10;}.cls-3{stroke-width:4px;}.cls-4{stroke-width:3px;}</style></defs><title>icon_engineer_whiteongrey</title><circle class="cls-1" cx="190.17" cy="190.17" r="190.17"/><polygon class="cls-2" points="101.53 236.8 101.53 336.28 278.81 336.28 278.81 236.8 256.75 229.79 251.13 210.75 192.72 269.59 128.7 210.75 123.51 228.49 101.53 236.8"/><ellipse class="cls-2" cx="189.48" cy="129.46" rx="80.18" ry="97.25"/><rect class="cls-3" x="134.98" y="118.86" width="46.54" height="27.5" rx="7.49" ry="7.49"/><rect class="cls-3" x="198.46" y="118.86" width="46.54" height="27.5" rx="7.49" ry="7.49"/><path class="cls-4" d="M191.08,144.48s8.47-11.67,16.94,0" transform="translate(-9.56 -9.38)"/><path class="cls-5" d="M277.65,119.63" transform="translate(-9.56 -9.38)"/><path class="cls-5" d="M254.56,123" transform="translate(-9.56 -9.38)"/><line class="cls-4" x1="245" y1="132.61" x2="267.24" y2="124.69"/><line class="cls-4" x1="134.98" y1="132.61" x2="112.74" y2="124.69"/><g id="EigFxC.tif"><path class="cls-6" d="M276.56,38.94c-8.29,7-6.16,11.84-.14,16.57,20.8,16.33,22.92,37.42,16.08,61.29-5.21,18.19-9.26,36.7-14.38,57.29L261,104.65c-41.25,13.2-83.9,8.6-127.63,1.76-2.84,22.49,0,45.09-10.05,65.92-2.14-11.55-3.82-22.69-6.41-33.62-1.28-5.41-4.48-10.33-6.38-15.63-4.06-11.34-3.37-21.75,6.45-31.17L104.16,96l-1.62-1.37L130.71,61l-12.8-9.34,29.18-3.84L129,33.91c24.9-3.3,49-7.22,73.29-9.46a68,68,0,0,1,48.81,14c6.49,5,11.83,8.42,18.91,1.66C270.91,39.25,272.92,39.54,276.56,38.94Z" transform="translate(-9.56 -9.38)"/></g></svg>